<mxfile host="Electron" modified="2024-04-12T18:02:27.150Z" agent="Mozilla/5.0 (Windows NT 10.0; Win64; x64) AppleWebKit/537.36 (KHTML, like Gecko) draw.io/24.1.0 Chrome/120.0.6099.109 Electron/28.1.0 Safari/537.36" etag="Lfg1evxbcOzVQJ1fthga" version="24.1.0" type="device">
  <diagram name="Page-1" id="JoRrFB8QGnkkvg17dF2b">
    <mxGraphModel dx="1434" dy="844" grid="1" gridSize="10" guides="1" tooltips="1" connect="1" arrows="1" fold="1" page="1" pageScale="1" pageWidth="850" pageHeight="1100" math="0" shadow="0">
      <root>
        <mxCell id="0" />
        <mxCell id="1" parent="0" />
        <mxCell id="QJK2Kql4qAQbH-E4mY3D-1" value="" style="edgeStyle=orthogonalEdgeStyle;rounded=0;orthogonalLoop=1;jettySize=auto;html=1;" edge="1" parent="1" source="Lngy7ZZMOgNmuN5zHowg-1" target="uW9jwCuG6La_cjF7t6QC-1">
          <mxGeometry relative="1" as="geometry" />
        </mxCell>
        <mxCell id="Lngy7ZZMOgNmuN5zHowg-1" value="Inicio" style="rounded=1;whiteSpace=wrap;html=1;" parent="1" vertex="1">
          <mxGeometry x="365" y="40" width="120" height="60" as="geometry" />
        </mxCell>
        <mxCell id="QJK2Kql4qAQbH-E4mY3D-2" value="" style="edgeStyle=orthogonalEdgeStyle;rounded=0;orthogonalLoop=1;jettySize=auto;html=1;" edge="1" parent="1" source="uW9jwCuG6La_cjF7t6QC-1" target="uW9jwCuG6La_cjF7t6QC-6">
          <mxGeometry relative="1" as="geometry" />
        </mxCell>
        <mxCell id="uW9jwCuG6La_cjF7t6QC-1" value="&quot;Ingrese el precio&quot;&amp;nbsp;" style="shape=display;whiteSpace=wrap;html=1;" parent="1" vertex="1">
          <mxGeometry x="360" y="150" width="130" height="70" as="geometry" />
        </mxCell>
        <mxCell id="uW9jwCuG6La_cjF7t6QC-3" style="edgeStyle=orthogonalEdgeStyle;rounded=0;orthogonalLoop=1;jettySize=auto;html=1;exitX=0.5;exitY=1;exitDx=0;exitDy=0;" parent="1" source="Lngy7ZZMOgNmuN5zHowg-1" target="Lngy7ZZMOgNmuN5zHowg-1" edge="1">
          <mxGeometry relative="1" as="geometry" />
        </mxCell>
        <mxCell id="QJK2Kql4qAQbH-E4mY3D-3" value="" style="edgeStyle=orthogonalEdgeStyle;rounded=0;orthogonalLoop=1;jettySize=auto;html=1;" edge="1" parent="1" source="uW9jwCuG6La_cjF7t6QC-6" target="uW9jwCuG6La_cjF7t6QC-9">
          <mxGeometry relative="1" as="geometry" />
        </mxCell>
        <mxCell id="uW9jwCuG6La_cjF7t6QC-6" value="Precio" style="shape=parallelogram;perimeter=parallelogramPerimeter;whiteSpace=wrap;html=1;fixedSize=1;" parent="1" vertex="1">
          <mxGeometry x="365" y="270" width="120" height="60" as="geometry" />
        </mxCell>
        <mxCell id="QJK2Kql4qAQbH-E4mY3D-7" style="edgeStyle=orthogonalEdgeStyle;rounded=0;orthogonalLoop=1;jettySize=auto;html=1;entryX=0.583;entryY=-0.067;entryDx=0;entryDy=0;entryPerimeter=0;" edge="1" parent="1">
          <mxGeometry relative="1" as="geometry">
            <mxPoint x="559.96" y="510" as="targetPoint" />
            <mxPoint x="460" y="424.02" as="sourcePoint" />
          </mxGeometry>
        </mxCell>
        <mxCell id="uW9jwCuG6La_cjF7t6QC-9" value="Precio &amp;lt; 100" style="rhombus;whiteSpace=wrap;html=1;" parent="1" vertex="1">
          <mxGeometry x="385" y="380" width="80" height="80" as="geometry" />
        </mxCell>
        <mxCell id="uW9jwCuG6La_cjF7t6QC-16" value="Verdadero" style="text;html=1;align=center;verticalAlign=middle;resizable=0;points=[];autosize=1;strokeColor=none;fillColor=none;" parent="1" vertex="1">
          <mxGeometry x="510" y="390" width="80" height="30" as="geometry" />
        </mxCell>
        <mxCell id="uW9jwCuG6La_cjF7t6QC-17" value="`" style="text;html=1;align=center;verticalAlign=middle;resizable=0;points=[];autosize=1;strokeColor=none;fillColor=none;" parent="1" vertex="1">
          <mxGeometry x="130" y="170" width="30" height="30" as="geometry" />
        </mxCell>
        <mxCell id="uW9jwCuG6La_cjF7t6QC-20" value="Precio = Precio - (Precio * 0.10)" style="rounded=0;whiteSpace=wrap;html=1;" parent="1" vertex="1">
          <mxGeometry x="240" y="510" width="120" height="60" as="geometry" />
        </mxCell>
        <mxCell id="uW9jwCuG6La_cjF7t6QC-21" value="Precio = Precio - (Precio * 0.02)" style="rounded=0;whiteSpace=wrap;html=1;" parent="1" vertex="1">
          <mxGeometry x="490" y="510" width="120" height="60" as="geometry" />
        </mxCell>
        <mxCell id="uW9jwCuG6La_cjF7t6QC-28" value="&quot;El precio total es:&quot;&lt;div&gt;Precio&amp;nbsp;&lt;/div&gt;" style="shape=display;whiteSpace=wrap;html=1;" parent="1" vertex="1">
          <mxGeometry x="360" y="750" width="130" height="70" as="geometry" />
        </mxCell>
        <mxCell id="QJK2Kql4qAQbH-E4mY3D-6" style="edgeStyle=orthogonalEdgeStyle;rounded=0;orthogonalLoop=1;jettySize=auto;html=1;entryX=0.333;entryY=0.017;entryDx=0;entryDy=0;entryPerimeter=0;" edge="1" parent="1" source="uW9jwCuG6La_cjF7t6QC-9" target="uW9jwCuG6La_cjF7t6QC-20">
          <mxGeometry relative="1" as="geometry" />
        </mxCell>
        <mxCell id="QJK2Kql4qAQbH-E4mY3D-8" value="Falso" style="text;html=1;align=center;verticalAlign=middle;resizable=0;points=[];autosize=1;strokeColor=none;fillColor=none;" vertex="1" parent="1">
          <mxGeometry x="260" y="390" width="50" height="30" as="geometry" />
        </mxCell>
        <mxCell id="QJK2Kql4qAQbH-E4mY3D-9" style="edgeStyle=orthogonalEdgeStyle;rounded=0;orthogonalLoop=1;jettySize=auto;html=1;entryX=0;entryY=0;entryDx=63.75;entryDy=0;entryPerimeter=0;" edge="1" parent="1" source="uW9jwCuG6La_cjF7t6QC-20" target="uW9jwCuG6La_cjF7t6QC-28">
          <mxGeometry relative="1" as="geometry" />
        </mxCell>
        <mxCell id="QJK2Kql4qAQbH-E4mY3D-10" style="edgeStyle=orthogonalEdgeStyle;rounded=0;orthogonalLoop=1;jettySize=auto;html=1;entryX=0;entryY=0;entryDx=63.75;entryDy=0;entryPerimeter=0;" edge="1" parent="1" source="uW9jwCuG6La_cjF7t6QC-21" target="uW9jwCuG6La_cjF7t6QC-28">
          <mxGeometry relative="1" as="geometry" />
        </mxCell>
      </root>
    </mxGraphModel>
  </diagram>
</mxfile>
